<svg id="Layer_1" data-name="Layer 1" xmlns="http://www.w3.org/2000/svg" viewBox="0 0 33.4 28.32"><defs><style>.cls-1{fill:#e1f5e8;}</style></defs><title>GitHub</title><path class="cls-1" d="M22.47,16.53c-1.3,0-2.36,1.46-2.36,3.27s1.06,3.27,2.36,3.27,2.36-1.46,2.36-3.27S23.78,16.53,22.47,16.53ZM30.69,8c.27-.66.28-4.43-1.15-8,0,0-3.29.36-8.26,3.78a19.53,19.53,0,0,0-4.57-.43,19.52,19.52,0,0,0-4.57.43C7.15.36,3.86,0,3.86,0,2.43,3.61,2.45,7.37,2.71,8a9.84,9.84,0,0,0-2.71,7c0,13,10.82,13.25,13.55,13.25h6.29c2.73,0,13.55-.21,13.55-13.25A9.84,9.84,0,0,0,30.69,8ZM16.75,26.71h-.1c-6.85,0-12.18-.82-12.18-7.47a5.62,5.62,0,0,1,1.9-4.3c2.23-2,6-1,10.28-1h.1C21,14,24.8,12.9,27,14.94a5.63,5.63,0,0,1,1.9,4.3C28.93,25.9,23.6,26.71,16.75,26.71ZM10.93,16.53c-1.3,0-2.36,1.46-2.36,3.27s1.06,3.27,2.36,3.27,2.36-1.46,2.36-3.27S12.23,16.53,10.93,16.53Z"/></svg>