<svg id="Layer_1" data-name="Layer 1" xmlns="http://www.w3.org/2000/svg" viewBox="0 0 31.42 31.42"><defs><style>.cls-1{fill:#e1f5e8;}</style></defs><title>Linkdin</title><path class="cls-1" d="M7,3.49A3.3,3.3,0,0,1,3.49,7,3.36,3.36,0,0,1,0,3.67,3.54,3.54,0,0,1,3.49,0,3.39,3.39,0,0,1,7,3.49ZM0,31.42H7V8.73H0ZM23.74,9.08a7.65,7.65,0,0,0-6.63,3.49h-.17l-.35-3H10.3c0,1.92.17,4.19.17,6.81v15h7V19a5.38,5.38,0,0,1,.17-1.75c.52-1.22,1.4-2.79,3.32-2.79,2.44,0,3.49,2.09,3.49,4.89v12h7V18.51C31.42,12,28.11,9.08,23.74,9.08Z"/></svg>