<svg id="Layer_1" data-name="Layer 1" xmlns="http://www.w3.org/2000/svg" viewBox="0 0 72 54"><defs><style>.cls-1,.cls-2{fill:#e1f5e8;}.cls-2{font-size:28.82px;font-family:MerriweatherSans-Bold, Merriweather Sans;font-weight:700;}</style></defs><title>logo</title><path class="cls-1" d="M4,17H68V48a2,2,0,0,1-2,2H6a2,2,0,0,1-2-2ZM23.5,6A2.5,2.5,0,1,0,26,8.5,2.5,2.5,0,0,0,23.5,6Zm-7,0A2.5,2.5,0,1,0,19,8.5,2.5,2.5,0,0,0,16.5,6Zm-7,0A2.5,2.5,0,1,0,12,8.5,2.5,2.5,0,0,0,9.5,6ZM6,4H66a2,2,0,0,1,2,2v7H4V6A2,2,0,0,1,6,4ZM6,0A6,6,0,0,0,0,6V48a6,6,0,0,0,6,6H66a6,6,0,0,0,6-6V6a6,6,0,0,0-6-6Z"/><text class="cls-2" transform="translate(13.14 43.71)">MT</text></svg>