<svg id="Layer_1" data-name="Layer 1" xmlns="http://www.w3.org/2000/svg" viewBox="0 0 35.2 28.6"><defs><style>.cls-1{fill:#e1f5e8;}</style></defs><title>twitter</title><path class="cls-1" d="M31.59,7.12c0,.31,0,.62,0,.93,0,9.54-7.26,20.55-20.54,20.55A20.42,20.42,0,0,1,0,25.35a14.65,14.65,0,0,0,1.72.1,14.49,14.49,0,0,0,9-3.09,7.23,7.23,0,0,1-6.74-5,7.38,7.38,0,0,0,1.36.13,7.24,7.24,0,0,0,1.9-.25,7.23,7.23,0,0,1-5.79-7.08v-.09a7.2,7.2,0,0,0,3.27.9A7.23,7.23,0,0,1,2.45,1.32,20.5,20.5,0,0,0,17.33,8.86a7.29,7.29,0,0,1-.19-1.65A7.22,7.22,0,0,1,29.64,2.28,14.54,14.54,0,0,0,34.22.53a7.25,7.25,0,0,1-3.18,4A14.44,14.44,0,0,0,35.2,3.38,14.58,14.58,0,0,1,31.59,7.12Z"/></svg>